<svg xmlns="http://www.w3.org/2000/svg" viewBox="0 0 448 512"><path d="M422 407c-24 25-52 43-85 55s-69 18-105 18c-35 0-66-6-95-17s-53-26-73-46-36-43-47-71-17-58-17-90 6-62 18-89 29-51 50-71 46-35 74-47c28-11 58-17 90-17 28 0 55 4 81 12s49 20 69 36 36 36 48 60 18 53 18 85c0 24-3 46-10 64s-16 34-27 46-24 22-38 28-29 10-45 10-29-4-39-12-15-17-15-29h-3c-6 10-15 19-28 28s-28 13-46 13c-28 0-49-9-64-27s-23-42-23-71c0-17 3-34 9-50s14-31 24-44 23-23 38-31 31-12 49-12c15 0 27 4 38 10 10 6 18 15 21 24h1l5-24h54l-24 113c-1 6-2 12-3 19s-2 13-2 19c0 7 1 13 4 18s7 7 15 7c16 0 29-9 39-26s16-40 16-68c0-24-4-45-12-64s-20-34-34-47-32-23-52-29-41-9-65-9c-26 0-49 4-70 13s-39 22-54 38-27 34-35 56c-8 21-13 44-13 69 0 26 4 51 13 72s21 39 37 54 35 27 57 35 46 12 72 12c33 0 61-6 85-16s45-25 65-43zM231 188c-10 0-18 2-25 8s-14 13-19 22-8 18-11 28-4 20-4 30c0 5 0 10 1 16 1 5 3 10 6 15s7 8 12 11 11 5 19 5c11 0 20-3 28-8s14-13 19-21 9-16 11-26 3-19 3-27c0-6 0-13-1-19s-4-12-7-17-7-9-12-12-12-5-20-5z"/></svg>