<?xml version="1.0"?>
<!DOCTYPE svg PUBLIC "-//W3C//DTD SVG 1.1//EN" "http://www.w3.org/Graphics/SVG/1.1/DTD/svg11.dtd">
<svg xmlns="http://www.w3.org/2000/svg" width="200" height="200">
  <circle cx="100" cy="100" r="100" stroke="black" stroke-width="1" fill="none"/>
  <circle cx="100" cy="100" r="1" stroke="black" stroke-width="1" fill="none"/>
  <path d="M 164.0 100.0            L 197.0 100.0            A 97 97 0 0 1 195.13617219911333 118.92376123556444            L 162.77025794580675 112.4857806090322            A 64.0 64.0 0 0 0 164.0 100.0" fill="none" stroke="black" stroke-width="1"/><path d="M 159.12829008072237 124.49173967136575            L 189.61631465359483 137.1202929394137            A 97 97 0 0 1 180.6525523933469 153.89031260290142            L 153.2140551873629 135.55649491325454            A 64.0 64.0 0 0 0 159.12829008072237 124.49173967136575" fill="none" stroke="black" stroke-width="1"/><path d="M 145.25483399593904 145.25483399593904            L 168.58935777509512 168.5893577750951            A 97 97 0 0 1 153.89031260290142 180.6525523933469            L 135.55649491325454 153.2140551873629            A 64.0 64.0 0 0 0 145.25483399593904 145.25483399593904" fill="none" stroke="black" stroke-width="1"/><path d="M 124.49173967136575 159.12829008072237            L 137.12029293941373 189.61631465359483            A 97 97 0 0 1 118.92376123556446 195.13617219911333            L 112.48578060903222 162.77025794580675            A 64.0 64.0 0 0 0 124.49173967136575 159.12829008072237" fill="none" stroke="black" stroke-width="1"/><path d="M 100.0 164.0            L 100.0 197.0            A 97 97 0 0 1 81.07623876443557 195.13617219911333            L 87.5142193909678 162.77025794580675            A 64.0 64.0 0 0 0 100.0 164.0" fill="none" stroke="black" stroke-width="1"/><path d="M 75.50826032863426 159.12829008072237            L 62.8797070605863 189.61631465359483            A 97 97 0 0 1 46.10968739709861 180.65255239334692            L 64.44350508674547 153.2140551873629            A 64.0 64.0 0 0 0 75.50826032863426 159.12829008072237" fill="none" stroke="black" stroke-width="1"/><path d="M 54.74516600406096 145.25483399593904            L 31.41064222490489 168.58935777509512            A 97 97 0 0 1 19.347447606653105 153.89031260290142            L 46.78594481263709 135.55649491325454            A 64.0 64.0 0 0 0 54.74516600406096 145.25483399593904" fill="none" stroke="black" stroke-width="1"/><path d="M 40.87170991927764 124.49173967136575            L 10.383685346405187 137.12029293941373            A 97 97 0 0 1 4.863827800886654 118.92376123556447            L 37.22974205419325 112.48578060903223            A 64.0 64.0 0 0 0 40.87170991927764 124.49173967136575" fill="none" stroke="black" stroke-width="1"/><path d="M 36.0 100.00000000000001            L 3.0 100.00000000000001            A 97 97 0 0 1 4.863827800886654 81.07623876443554            L 37.22974205419325 87.51421939096778            A 64.0 64.0 0 0 0 36.0 100.00000000000001" fill="none" stroke="black" stroke-width="1"/><path d="M 40.87170991927764 75.50826032863426            L 10.383685346405187 62.879707060586306            A 97 97 0 0 1 19.34744760665309 46.10968739709861            L 46.78594481263709 64.44350508674547            A 64.0 64.0 0 0 0 40.87170991927764 75.50826032863426" fill="none" stroke="black" stroke-width="1"/><path d="M 54.74516600406095 54.74516600406096            L 31.410642224904876 31.41064222490489            A 97 97 0 0 1 46.10968739709859 19.347447606653105            L 64.44350508674546 46.785944812637105            A 64.0 64.0 0 0 0 54.74516600406095 54.74516600406096" fill="none" stroke="black" stroke-width="1"/><path d="M 75.50826032863422 40.87170991927766            L 62.879707060586234 10.383685346405215            A 97 97 0 0 1 81.07623876443552 4.863827800886668            L 87.51421939096777 37.22974205419326            A 64.0 64.0 0 0 0 75.50826032863422 40.87170991927766" fill="none" stroke="black" stroke-width="1"/><path d="M 99.99999999999999 36.0            L 99.99999999999999 3.0            A 97 97 0 0 1 118.92376123556444 4.863827800886654            L 112.48578060903222 37.22974205419325            A 64.0 64.0 0 0 0 99.99999999999999 36.0" fill="none" stroke="black" stroke-width="1"/><path d="M 124.49173967136576 40.871709919277656            L 137.12029293941373 10.383685346405201            A 97 97 0 0 1 153.8903126029014 19.34744760665309            L 135.5564949132545 46.78594481263709            A 64.0 64.0 0 0 0 124.49173967136576 40.871709919277656" fill="none" stroke="black" stroke-width="1"/><path d="M 145.25483399593904 54.74516600406095            L 168.5893577750951 31.410642224904876            A 97 97 0 0 1 180.6525523933469 46.10968739709859            L 153.2140551873629 64.44350508674546            A 64.0 64.0 0 0 0 145.25483399593904 54.74516600406095" fill="none" stroke="black" stroke-width="1"/><path d="M 159.12829008072234 75.50826032863421            L 189.61631465359477 62.879707060586234            A 97 97 0 0 1 195.13617219911333 81.07623876443552            L 162.77025794580675 87.51421939096775            A 64.0 64.0 0 0 0 159.12829008072234 75.50826032863421" fill="none" stroke="black" stroke-width="1"/>
  <path d="M 127.86517234682151 102.7444799292277            L 160.706268327004 105.9790455601032            A 61.0 61.0 0 0 1 158.37336047966474 117.7073653125222            L 126.79432940050185 108.12797096312495            A 28 28 0 0 0 127.86517234682151 102.7444799292277" fill="none" stroke="black" stroke-width="1"/><path d="M 124.69379540175395 113.19910863112793            L 153.79719712524965 128.75520094638586            A 61.0 61.0 0 0 1 147.15363765512694 138.69799033398237            L 121.64429269415663 117.76301195658208            A 28 28 0 0 0 124.69379540175395 113.19910863112793" fill="none" stroke="black" stroke-width="1"/><path d="M 117.76301195658208 121.64429269415663            L 138.69799033398237 147.15363765512694            A 61.0 61.0 0 0 1 128.75520094638586 153.79719712524965            L 113.19910863112794 124.69379540175395            A 28 28 0 0 0 117.76301195658208 121.64429269415663" fill="none" stroke="black" stroke-width="1"/><path d="M 108.12797096312495 126.79432940050185            L 117.7073653125222 158.37336047966474            A 61.0 61.0 0 0 1 105.9790455601032 160.706268327004            L 102.74447992922771 127.86517234682151            A 28 28 0 0 0 108.12797096312495 126.79432940050185" fill="none" stroke="black" stroke-width="1"/><path d="M 97.2555200707723 127.86517234682151            L 94.0209544398968 160.706268327004            A 61.0 61.0 0 0 1 82.2926346874778 158.37336047966474            L 91.87202903687506 126.79432940050185            A 28 28 0 0 0 97.2555200707723 127.86517234682151" fill="none" stroke="black" stroke-width="1"/><path d="M 86.80089136887206 124.69379540175395            L 71.24479905361414 153.79719712524965            A 61.0 61.0 0 0 1 61.30200966601763 147.15363765512697            L 82.23698804341792 121.64429269415663            A 28 28 0 0 0 86.80089136887206 124.69379540175395" fill="none" stroke="black" stroke-width="1"/><path d="M 78.35570730584337 117.76301195658208            L 52.84636234487304 138.69799033398237            A 61.0 61.0 0 0 1 46.20280287475034 128.75520094638586            L 75.30620459824605 113.19910863112793            A 28 28 0 0 0 78.35570730584337 117.76301195658208" fill="none" stroke="black" stroke-width="1"/><path d="M 73.20567059949815 108.12797096312495            L 41.62663952033526 117.7073653125222            A 61.0 61.0 0 0 1 39.29373167299599 105.97904556010322            L 72.13482765317849 102.74447992922771            A 28 28 0 0 0 73.20567059949815 108.12797096312495" fill="none" stroke="black" stroke-width="1"/><path d="M 72.13482765317849 97.2555200707723            L 39.29373167299599 94.0209544398968            A 61.0 61.0 0 0 1 41.62663952033526 82.29263468747779            L 73.20567059949815 91.87202903687505            A 28 28 0 0 0 72.13482765317849 97.2555200707723" fill="none" stroke="black" stroke-width="1"/><path d="M 75.30620459824605 86.80089136887207            L 46.20280287475035 71.24479905361414            A 61.0 61.0 0 0 1 52.846362344873036 61.30200966601764            L 78.35570730584337 82.23698804341794            A 28 28 0 0 0 75.30620459824605 86.80089136887207" fill="none" stroke="black" stroke-width="1"/><path d="M 82.23698804341791 78.35570730584337            L 61.3020096660176 52.846362344873064            A 61.0 61.0 0 0 1 71.24479905361413 46.20280287475035            L 86.80089136887206 75.30620459824605            A 28 28 0 0 0 82.23698804341791 78.35570730584337" fill="none" stroke="black" stroke-width="1"/><path d="M 91.87202903687503 73.20567059949815            L 82.29263468747774 41.626639520335274            A 61.0 61.0 0 0 1 94.02095443989676 39.29373167299599            L 97.25552007077228 72.13482765317849            A 28 28 0 0 0 91.87202903687503 73.20567059949815" fill="none" stroke="black" stroke-width="1"/><path d="M 102.74447992922768 72.13482765317849            L 105.97904556010316 39.29373167299599            A 61.0 61.0 0 0 1 117.70736531252219 41.62663952033525            L 108.12797096312494 73.20567059949815            A 28 28 0 0 0 102.74447992922768 72.13482765317849" fill="none" stroke="black" stroke-width="1"/><path d="M 113.19910863112793 75.30620459824605            L 128.75520094638586 46.20280287475035            A 61.0 61.0 0 0 1 138.69799033398235 52.846362344873015            L 117.76301195658206 78.35570730584335            A 28 28 0 0 0 113.19910863112793 75.30620459824605" fill="none" stroke="black" stroke-width="1"/><path d="M 121.64429269415663 82.23698804341791            L 147.15363765512694 61.3020096660176            A 61.0 61.0 0 0 1 153.79719712524962 71.24479905361413            L 124.69379540175393 86.80089136887206            A 28 28 0 0 0 121.64429269415663 82.23698804341791" fill="none" stroke="black" stroke-width="1"/><path d="M 126.79432940050185 91.87202903687503            L 158.3733604796647 82.29263468747774            A 61.0 61.0 0 0 1 160.706268327004 94.02095443989676            L 127.86517234682151 97.25552007077228            A 28 28 0 0 0 126.79432940050185 91.87202903687503" fill="none" stroke="black" stroke-width="1"/>
</svg>
