<?xml version="1.0"?>
<!DOCTYPE svg PUBLIC "-//W3C//DTD SVG 1.1//EN" "http://www.w3.org/Graphics/SVG/1.1/DTD/svg11.dtd">
<svg xmlns="http://www.w3.org/2000/svg" width="200" height="200">
  <circle cx="100" cy="100" r="100" stroke="black" stroke-width="1" fill="none"/>
  <circle cx="100" cy="100" r="1" stroke="black" stroke-width="1" fill="none"/>
  <path d="M 176.5 100.0            L 197.0 100.0            A 97 97 0 0 1 189.61631465359483 137.1202929394137            L 170.67678423711345 129.27528257592937            A 76.5 76.5 0 0 0 176.5 100.0" fill="none" stroke="black" stroke-width="1"/><path d="M 154.09366876077087 154.09366876077087            L 168.58935777509512 168.5893577750951            A 97 97 0 0 1 137.12029293941373 189.61631465359483            L 129.27528257592937 170.67678423711345            A 76.5 76.5 0 0 0 154.09366876077087 154.09366876077087" fill="none" stroke="black" stroke-width="1"/><path d="M 100.0 176.5            L 100.0 197.0            A 97 97 0 0 1 62.8797070605863 189.61631465359483            L 70.72471742407063 170.67678423711345            A 76.5 76.5 0 0 0 100.0 176.5" fill="none" stroke="black" stroke-width="1"/><path d="M 45.90633123922912 154.09366876077087            L 31.41064222490489 168.58935777509512            A 97 97 0 0 1 10.383685346405187 137.12029293941373            L 29.323215762886562 129.27528257592937            A 76.5 76.5 0 0 0 45.90633123922912 154.09366876077087" fill="none" stroke="black" stroke-width="1"/><path d="M 23.5 100.00000000000001            L 3.0 100.00000000000001            A 97 97 0 0 1 10.383685346405187 62.879707060586306            L 29.323215762886562 70.72471742407063            A 76.5 76.5 0 0 0 23.5 100.00000000000001" fill="none" stroke="black" stroke-width="1"/><path d="M 45.906331239229104 45.90633123922912            L 31.410642224904876 31.41064222490489            A 97 97 0 0 1 62.879707060586234 10.383685346405215            L 70.72471742407059 29.323215762886576            A 76.5 76.5 0 0 0 45.906331239229104 45.90633123922912" fill="none" stroke="black" stroke-width="1"/><path d="M 99.99999999999999 23.5            L 99.99999999999999 3.0            A 97 97 0 0 1 137.12029293941373 10.383685346405201            L 129.2752825759294 29.323215762886562            A 76.5 76.5 0 0 0 99.99999999999999 23.5" fill="none" stroke="black" stroke-width="1"/><path d="M 154.09366876077087 45.906331239229104            L 168.5893577750951 31.410642224904876            A 97 97 0 0 1 189.61631465359477 62.879707060586234            L 170.67678423711342 70.72471742407058            A 76.5 76.5 0 0 0 154.09366876077087 45.906331239229104" fill="none" stroke="black" stroke-width="1"/>
  <path d="M 151.98161986137123 110.3397870668548            L 172.08771810963742 114.33913866818543            A 73.5 73.5 0 0 1 161.11301650423707 140.83441212694078            L 144.0678894520349 129.44522235003893            A 53 53 0 0 0 151.98161986137123 110.3397870668548" fill="none" stroke="black" stroke-width="1"/><path d="M 129.44522235003893 144.0678894520349            L 140.83441212694078 161.11301650423707            A 73.5 73.5 0 0 1 114.33913866818543 172.08771810963742            L 110.3397870668548 151.98161986137123            A 53 53 0 0 0 129.44522235003893 144.0678894520349" fill="none" stroke="black" stroke-width="1"/><path d="M 89.6602129331452 151.98161986137123            L 85.66086133181457 172.08771810963742            A 73.5 73.5 0 0 1 59.16558787305925 161.1130165042371            L 70.5547776499611 144.0678894520349            A 53 53 0 0 0 89.6602129331452 151.98161986137123" fill="none" stroke="black" stroke-width="1"/><path d="M 55.932110547965095 129.44522235003893            L 38.88698349576292 140.83441212694078            A 73.5 73.5 0 0 1 27.912281890362564 114.33913866818546            L 48.01838013862878 110.33978706685481            A 53 53 0 0 0 55.932110547965095 129.44522235003893" fill="none" stroke="black" stroke-width="1"/><path d="M 48.01838013862878 89.6602129331452            L 27.912281890362564 85.66086133181457            A 73.5 73.5 0 0 1 38.886983495762905 59.16558787305925            L 55.93211054796509 70.5547776499611            A 53 53 0 0 0 48.01838013862878 89.6602129331452" fill="none" stroke="black" stroke-width="1"/><path d="M 70.55477764996108 55.9321105479651            L 59.16558787305924 38.88698349576293            A 73.5 73.5 0 0 1 85.66086133181454 27.91228189036258            L 89.66021293314517 48.01838013862879            A 53 53 0 0 0 70.55477764996108 55.9321105479651" fill="none" stroke="black" stroke-width="1"/><path d="M 110.3397870668548 48.01838013862878            L 114.33913866818543 27.912281890362564            A 73.5 73.5 0 0 1 140.8344121269408 38.88698349576294            L 129.44522235003893 55.93211054796512            A 53 53 0 0 0 110.3397870668548 48.01838013862878" fill="none" stroke="black" stroke-width="1"/><path d="M 144.0678894520349 70.55477764996108            L 161.11301650423707 59.16558787305924            A 73.5 73.5 0 0 1 172.08771810963742 85.66086133181454            L 151.9816198613712 89.66021293314517            A 53 53 0 0 0 144.0678894520349 70.55477764996108" fill="none" stroke="black" stroke-width="1"/>
</svg>
